<?xml version="1.0" standalone="no"?>
<!DOCTYPE svg PUBLIC "-//W3C//DTD SVG 20010904//EN"
 "http://www.w3.org/TR/2001/REC-SVG-20010904/DTD/svg10.dtd">
<svg version="1.0" xmlns="http://www.w3.org/2000/svg"
 width="1048.000000pt" height="1048.000000pt" viewBox="0 0 1048.000000 1048.000000"
 preserveAspectRatio="xMidYMid meet">
<metadata>
Created by potrace 1.14, written by Peter Selinger 2001-2017
</metadata>
<g transform="translate(0.000000,1048.000000) scale(0.100000,-0.100000)"
fill="#000000" stroke="none">
<path d="M3838 10475 c-1 -2 -43 -6 -93 -9 -296 -18 -384 -36 -531 -108 -232
-114 -397 -307 -464 -544 -19 -68 -19 -125 -17 -3614 1 -1950 6 -3556 10
-3570 4 -14 9 -36 12 -50 14 -75 63 -195 105 -256 43 -65 131 -147 182 -171
75 -36 150 -62 195 -68 16 -3 53 -9 83 -14 30 -5 172 -8 315 -6 225 2 278 5
305 15 3 1 10 3 15 4 86 14 189 63 254 122 85 76 142 181 176 324 23 95 29
170 41 500 3 91 7 176 9 190 29 214 70 322 152 407 41 42 97 83 112 83 5 0 11
4 13 8 7 17 160 66 303 98 24 5 191 33 231 38 32 4 120 24 144 33 8 3 22 7 30
8 29 6 58 14 131 36 41 13 76 23 79 23 25 4 257 101 345 145 132 65 346 192
410 243 6 5 28 22 50 38 22 17 49 38 61 48 11 9 43 35 70 57 57 47 201 183
253 239 20 21 50 54 66 71 227 247 465 633 604 983 39 98 110 301 116 335 2 9
6 21 9 25 3 5 7 19 10 33 2 13 14 62 25 109 11 47 23 101 26 120 3 19 8 44 12
55 3 11 7 31 8 45 2 14 6 40 9 59 4 19 9 53 11 75 3 23 7 57 10 76 25 191 26
576 1 780 -3 19 -7 62 -11 95 -4 33 -11 83 -16 110 -6 28 -12 59 -14 70 -7 47
-17 94 -30 146 -8 30 -16 64 -18 75 -6 30 -26 98 -72 239 -40 122 -57 166 -89
240 -8 17 -26 59 -42 95 -28 65 -101 209 -144 285 -51 91 -211 330 -230 345
-3 3 -17 21 -30 40 -13 19 -29 40 -35 46 -5 6 -28 33 -50 60 -22 26 -53 62
-70 80 -16 17 -39 42 -51 55 -29 34 -170 167 -227 214 -27 22 -58 48 -70 58
-12 10 -35 28 -50 40 -16 12 -41 31 -55 43 -89 69 -299 196 -432 261 -88 43
-181 86 -190 87 -3 1 -21 7 -40 15 -99 37 -117 44 -135 52 -29 12 -194 57
-234 64 -19 3 -37 8 -41 10 -4 2 -22 7 -41 10 -19 3 -52 10 -74 15 -22 5 -56
12 -75 15 -19 3 -66 12 -105 20 -38 8 -86 16 -105 19 -19 3 -44 7 -55 10 -11
2 -45 7 -75 12 -30 4 -57 8 -60 9 -3 1 -32 5 -65 9 -33 5 -68 10 -77 12 -9 1
-48 6 -85 10 -37 3 -79 8 -93 11 -30 5 -597 13 -602 8z"/>
<path d="M3577 1684 c-3 -3 -59 -7 -124 -9 -250 -5 -410 -60 -529 -179 -83
-84 -152 -225 -169 -351 -3 -22 -8 -51 -11 -65 -3 -14 -7 -104 -9 -200 -3
-150 2 -228 20 -325 2 -11 7 -36 10 -55 7 -38 64 -192 74 -200 3 -3 21 -27 40
-55 78 -116 212 -192 406 -229 71 -14 297 -15 1955 -12 1677 3 1884 5 1965 20
50 9 99 20 110 25 26 12 57 23 71 26 28 6 127 79 173 126 49 51 127 190 133
239 0 3 6 25 13 50 26 90 36 188 39 353 2 99 -12 266 -27 327 -2 8 -7 31 -11
50 -24 103 -88 214 -169 292 -49 47 -173 118 -208 118 -10 0 -20 4 -23 9 -8
12 -148 33 -254 37 -51 1 -97 6 -102 9 -6 3 -10 2 -10 -3 0 -4 -23 -6 -50 -2
-28 4 -53 3 -56 -1 -2 -4 -18 -4 -34 1 -16 5 -32 5 -34 1 -3 -4 -30 -4 -60 -1
-31 3 -56 3 -56 -2 0 -4 -6 -5 -13 -2 -25 9 -95 10 -90 0 4 -5 0 -6 -8 0 -17
10 -2579 12 -2579 2 0 -4 -7 -5 -15 -2 -21 9 -175 10 -175 2 0 -4 -13 -3 -30
2 -16 5 -30 6 -30 2 0 -8 -105 -6 -118 2 -5 3 -12 3 -15 0z"/>
</g>
</svg>
