<?xml version="1.0" standalone="no"?>
<!DOCTYPE svg PUBLIC "-//W3C//DTD SVG 20010904//EN"
 "http://www.w3.org/TR/2001/REC-SVG-20010904/DTD/svg10.dtd">
<svg version="1.0" xmlns="http://www.w3.org/2000/svg"
 width="100.000000pt" height="100.000000pt" viewBox="0 0 100.000000 100.000000"
 preserveAspectRatio="xMidYMid meet">
<metadata>
Created by potrace 1.14, written by Peter Selinger 2001-2017
</metadata>
<g transform="translate(0.000000,100.000000) scale(0.100000,-0.100000)"
fill="#000000" stroke="none">
<path d="M0 656 c0 -199 4 -325 11 -343 25 -66 84 -104 170 -107 l59 -3 -3 65
-2 65 -40 4 c-71 5 -70 2 -70 336 l1 297 -63 0 -63 0 0 -314z"/>
<path d="M407 732 c-51 -17 -80 -43 -102 -89 -15 -30 -17 -74 -17 -302 0 -146
1 -276 1 -288 1 -21 5 -23 66 -23 l65 0 0 278 c0 203 3 281 12 290 16 16 347
17 382 1 48 -22 71 -122 46 -196 -20 -56 -56 -67 -232 -68 l-158 0 0 -66 0
-65 173 1 c154 1 177 4 221 23 90 40 127 98 134 209 9 147 -25 226 -120 278
-53 29 -54 29 -241 30 -137 1 -199 -3 -230 -13z"/>
</g>
</svg>
