<?xml version="1.0" standalone="no"?>
<!DOCTYPE svg PUBLIC "-//W3C//DTD SVG 20010904//EN"
 "http://www.w3.org/TR/2001/REC-SVG-20010904/DTD/svg10.dtd">
<svg version="1.0" xmlns="http://www.w3.org/2000/svg"
 width="1048.000000pt" height="1048.000000pt" viewBox="0 0 1048.000000 1048.000000"
 preserveAspectRatio="xMidYMid meet">
<metadata>
Created by potrace 1.14, written by Peter Selinger 2001-2017
</metadata>
<g transform="translate(0.000000,1048.000000) scale(0.100000,-0.100000)"
fill="#000000" stroke="none">
<path d="M3725 10470 c-210 -17 -310 -32 -385 -56 -274 -92 -491 -298 -577
-548 l-28 -81 0 -3575 0 -3575 22 -85 c67 -252 209 -401 440 -461 171 -44 627
-46 788 -4 210 55 341 195 400 430 26 102 45 305 45 490 0 206 31 396 81 501
57 122 153 200 310 253 87 30 144 42 394 87 587 104 1111 380 1545 814 531
530 863 1227 967 2025 25 198 25 654 0 845 -59 434 -165 787 -348 1152 -397
793 -1071 1366 -1878 1598 -180 52 -637 138 -931 176 -146 19 -674 27 -845 14z"/>
<path d="M3440 1680 c-191 -9 -283 -30 -393 -87 -171 -89 -273 -258 -307 -509
-8 -61 -11 -161 -7 -295 4 -176 8 -217 30 -301 73 -276 241 -430 522 -477 53
-9 538 -12 1980 -9 l1910 3 82 23 c244 65 392 213 452 452 60 238 54 583 -14
788 -35 102 -66 154 -139 230 -75 79 -181 134 -316 164 -95 21 -95 22 -1865
23 -973 1 -1844 -1 -1935 -5z"/>
</g>
</svg>
